<svg width="122" height="40" viewBox="0 0 122 40" fill="none" xmlns="http://www.w3.org/2000/svg">
<path fill-rule="evenodd" clip-rule="evenodd" d="M72.5659 29.3532V19.449C72.5659 12.463 67.6183 11.8014 61.8593 17.2887L61.8899 17.3138C61.906 17.3272 61.9523 17.3667 61.9681 17.3814C61.9789 17.3913 61.9946 17.407 62.0054 17.4186C62.2517 17.6661 62.3088 17.8489 62.5179 17.9641C63.5869 16.9696 65.0096 16.2341 65.9177 16.8212C66.231 16.8929 66.5412 16.9911 66.7556 17.0628C67.6093 17.3528 67.3207 17.4357 67.3207 18.2523C67.3207 18.9851 68.2804 19.6408 68.8586 19.6408C69.9761 19.6408 69.786 18.8269 70.6216 20.2203C71.9451 22.4299 70.2508 21.1584 70.2508 22.927C70.2508 24.1788 70.8671 24.3258 71.2411 24.4952C71.4928 24.6099 71.6102 24.7336 71.6421 24.9049V25.1433C71.6106 25.375 71.5045 25.6789 71.3822 26.0993C71.2541 26.539 71.1624 27.0181 70.9102 27.0181C70.1586 27.0181 69.7347 26.8451 69.1759 27.4053C68.2319 28.3546 68.8221 28.8611 69.0056 29.6463C68.7196 30.0712 67.4771 30.7489 66.8811 30.8878C66.6887 30.5996 66.4873 30.3616 66.2611 30.1886C65.8395 30.553 65.2978 30.8381 65.1018 30.8381V31.1818H74.3528V30.8381C73.9711 30.8381 72.5663 29.9869 72.5663 29.3527L72.5659 29.3532ZM61.7775 17.2241V5.41419C61.7775 5.20354 61.644 5.1605 61.5172 5.24656C59.7735 6.39259 57.1702 7.0743 54.8209 7.24372C54.6096 7.28585 54.6514 7.4602 54.8209 7.58749C55.0389 7.75736 56.0198 8.17865 56.0198 9.11449V29.3536C56.0198 29.9878 54.6514 30.839 54.3125 30.839V31.1827H62.5624C61.969 31.0465 61.314 30.8242 61.314 30.5974C61.314 30.1053 61.394 29.7122 61.305 29.4428C61.1027 28.8337 60.312 28.3322 59.7753 28.3322C58.8052 28.3322 58.8469 29.5204 57.6997 27.2606C57.2453 26.366 57.51 26.604 58.1857 25.9442C58.8083 25.3378 58.7233 24.0165 57.7896 23.666C57.1437 23.4222 57.2277 23.3559 56.9913 23.2922C56.9913 22.3596 57.3334 21.7603 57.5046 21.0289C57.853 21.0208 57.7541 20.946 58.0791 20.9661C58.2864 20.9791 58.3498 21.0289 58.6766 21.0289C59.0843 21.0289 59.6674 20.3109 59.8265 19.9841C60.1821 19.2576 59.7667 19.0223 59.7024 18.2527C60.0364 18.0309 60.2279 17.8619 60.6289 17.6436C60.9787 17.4536 61.2655 17.2551 61.6799 17.1587C61.7244 17.1874 61.7518 17.2058 61.7775 17.2246V17.2241Z" fill="#085BDA"/>
<path fill-rule="evenodd" clip-rule="evenodd" d="M64.29 22.1063C65.354 22.1063 66.2162 22.9663 66.2162 24.0277C66.2162 25.089 65.3536 25.9473 64.29 25.9473C63.2259 25.9473 62.3633 25.089 62.3633 24.0277C62.3633 22.9659 63.2264 22.1063 64.29 22.1063ZM64.29 23.2729C64.7076 23.2729 65.0461 23.6104 65.0461 24.0277C65.0461 24.4431 64.7076 24.7806 64.29 24.7806C63.8724 24.7806 63.5339 24.4431 63.5339 24.0277C63.5339 23.6104 63.8724 23.2729 64.29 23.2729Z" fill="#085BDA"/>
<path d="M23.7863 23.6226H22.5204C22.3388 23.8946 22.1275 24.2326 21.8865 24.6377C21.6451 25.0434 21.4725 25.3436 21.3669 25.539C21.2617 25.7345 21.1178 25.9751 20.9371 26.2602C20.7564 26.5452 20.6206 26.7487 20.5298 26.8697C20.439 26.9903 20.3262 27.1481 20.19 27.3435C20.0551 27.5384 19.9423 27.6653 19.8515 27.7258L19.5125 27.9508C19.3768 28.0422 19.2487 28.1023 19.1282 28.1328C19.0073 28.1619 18.8791 28.1915 18.7443 28.2224C18.6081 28.2515 18.4503 28.2663 18.2696 28.2663H9.72255V16.9951H14.7416C15.255 16.9951 15.6389 17.0328 15.8956 17.109C16.1514 17.1838 16.4759 17.4621 16.867 17.9421C17.2599 18.4235 17.6357 19.1594 17.9981 20.1522H19.2639V10.9552H17.9981C17.6357 11.9466 17.2599 12.683 16.867 13.1644C16.4759 13.6457 16.1509 13.9236 15.8956 13.9985C15.6389 14.0733 15.255 14.1105 14.7416 14.1105H9.72255V3.29065H18.2237C18.8567 3.29065 19.384 3.51654 19.8061 3.96653C20.1675 4.35825 20.9066 5.68087 22.0223 7.9344H23.2882V0.451325H0V1.713C0.573158 1.83312 1.04831 1.99805 1.42458 2.20826C1.80174 2.41891 2.05752 2.7062 2.19372 3.0652C2.32903 3.42734 2.41221 3.72719 2.44233 3.96653C2.47245 4.20676 2.48772 4.53797 2.48772 4.95927V26.5986C2.48772 27.0194 2.47245 27.3502 2.44233 27.5909C2.41221 27.8307 2.32903 28.1328 2.19372 28.4927C2.05752 28.8544 1.80174 29.1394 1.42458 29.3496C1.04831 29.5603 0.573158 29.7247 0 29.8453V31.1083H23.3336L23.7858 23.623L23.7863 23.6226ZM26.8161 15.7783C26.8161 20.8886 28.3158 24.7955 31.3147 27.5008C34.3148 30.2048 38.2559 31.557 43.1397 31.557C46.1547 31.557 49.2147 31.2571 52.3192 30.6557L52.771 23.6226H51.5046C50.0279 27.2296 47.239 29.0336 43.1392 29.0336C40.0042 29.0336 37.7434 28.0032 36.3566 25.9451C34.9698 23.8857 34.2766 20.4978 34.2766 15.7787C34.2766 11.0601 34.9698 7.67131 36.3566 5.61275C37.7434 3.55374 40.0042 2.52378 43.1392 2.52378C45.039 2.52378 46.629 2.93792 47.9102 3.76439C49.1918 4.59086 50.2387 5.98072 51.0524 7.9344H52.3192V0.900866C49.2143 0.300284 46.1543 0 43.1397 0C38.2564 0 34.3148 1.35266 31.3147 4.05841C28.3153 6.76192 26.8161 10.6702 26.8161 15.7792V15.7783Z" fill="#085BDA"/>
<path d="M81.2202 31.327C83.7457 31.327 86.0653 30.0492 87.4787 27.7433L87.7367 31.2629L94.9001 29.3093V28.8395L91.7457 27.8938V11.5603L84.7639 13.6529L84.7702 14.2741L87.409 15.4018L87.4157 26.3144C86.2978 27.7809 84.8457 28.5953 83.2 28.5953C81.2396 28.5953 80.1274 27.4802 80.1274 24.648V11.5607L72.5869 13.6533V14.2745L75.8042 15.4022V25.4068C75.7975 29.0659 77.6509 31.3279 81.2207 31.3279L81.2202 31.327Z" fill="#085BDA"/>
<path d="M103.49 31.2952C108.007 31.2952 112.123 27.4985 112.123 21.2081C112.123 14.6985 109.195 11.4477 104.96 11.4477C102.792 11.4477 100.617 12.5624 99.3736 14.3731V5.68306L99.6874 1.67395L91.7266 3.63436V4.09869L95.0446 5.41997L95.0513 30.6184L96.0246 30.6126L98.6319 29.8045C99.8955 30.8752 101.517 31.2952 103.49 31.2952H103.49ZM102.339 29.3778C101.032 29.3778 100.115 28.9717 99.3736 28.3438V16.0332C100.234 14.8249 101.598 13.9281 103.131 13.9281C105.852 13.9281 107.75 16.3048 107.75 21.4098C107.75 26.2454 105.814 29.3782 102.339 29.3782V29.3778Z" fill="#085BDA"/>
<path fill-rule="evenodd" clip-rule="evenodd" d="M122 20.5147C122 18.9909 120.761 17.7556 119.233 17.7556C117.843 17.7556 116.693 18.778 116.496 20.1096L111.936 20.5147L116.496 20.9172C116.693 22.2488 117.842 23.272 119.233 23.272C120.761 23.272 122 22.0373 122 20.5147Z" fill="#085BDA"/>
<path fill-rule="evenodd" clip-rule="evenodd" d="M101.294 5.3891C100.317 5.75035 99.8191 6.83184 100.18 7.80667C100.469 8.58339 101.22 9.05803 102.008 9.03248L104.244 13.7264L102.892 8.78194C103.675 8.33285 104.043 7.37326 103.718 6.49973C103.356 5.52536 102.271 5.02786 101.294 5.3891Z" fill="#085BDA"/>
<path fill-rule="evenodd" clip-rule="evenodd" d="M117.006 2.34717C118.724 3.63618 119.069 6.06854 117.777 7.78199C116.602 9.34037 114.475 9.7666 112.807 8.85945L108.495 13.63L111.895 8.17551C110.559 6.82913 110.379 4.67466 111.555 3.11628C112.847 1.40239 115.287 1.05772 117.006 2.34673V2.34717Z" fill="#085BDA"/>
<path fill-rule="evenodd" clip-rule="evenodd" d="M98.542 37.4122C97.7225 37.1101 97.304 36.2012 97.6079 35.3846C97.8506 34.7329 98.4795 34.3358 99.1412 34.3551L101.017 30.4177L99.8825 34.5662C100.539 34.9435 100.847 35.7485 100.575 36.4817C100.272 37.2988 99.3611 37.7143 98.542 37.4122Z" fill="#085BDA"/>
<path fill-rule="evenodd" clip-rule="evenodd" d="M114.612 39.1946C116.279 37.9442 116.615 35.5826 115.361 33.9194C114.22 32.4076 112.155 31.9935 110.536 32.8737L106.351 28.2421L109.652 33.5379C108.355 34.8444 108.18 36.9348 109.321 38.4479C110.575 40.1107 112.944 40.4451 114.612 39.1951L114.612 39.1946Z" fill="#085BDA"/>
</svg>
