<svg width="123" height="40" viewBox="0 0 123 40" fill="none" xmlns="http://www.w3.org/2000/svg">
<path fill-rule="evenodd" clip-rule="evenodd" d="M104.603 35.6101V32.1394C104.603 29.6913 102.869 29.4595 100.851 31.3824L100.862 31.3912C100.867 31.3959 100.884 31.4097 100.889 31.4149C100.893 31.4184 100.898 31.4239 100.902 31.428C100.989 31.5147 101.009 31.5787 101.082 31.6191C101.456 31.2706 101.955 31.0128 102.273 31.2186C102.383 31.2437 102.492 31.2781 102.567 31.3033C102.866 31.4049 102.765 31.4339 102.765 31.7201C102.765 31.9769 103.101 32.2067 103.304 32.2067C103.695 32.2067 103.629 31.9214 103.922 32.4097C104.385 33.184 103.792 32.7385 103.792 33.3582C103.792 33.7969 104.008 33.8484 104.139 33.9078C104.227 33.948 104.268 33.9913 104.279 34.0513V34.1349C104.268 34.2161 104.231 34.3226 104.188 34.4699C104.143 34.624 104.111 34.7919 104.023 34.7919C103.759 34.7919 103.611 34.7312 103.415 34.9276C103.084 35.2602 103.291 35.4377 103.355 35.7129C103.255 35.8618 102.82 36.0992 102.611 36.1479C102.543 36.0469 102.473 35.9635 102.394 35.9029C102.246 36.0306 102.056 36.1305 101.987 36.1305V36.2509H105.229V36.1305C105.095 36.1305 104.603 35.8324 104.603 35.6101ZM100.822 31.3598V27.2213C100.822 27.1475 100.776 27.1324 100.731 27.1625C100.12 27.5641 99.2079 27.803 98.3846 27.8624C98.3106 27.8771 98.3252 27.9382 98.3846 27.9829C98.461 28.0424 98.8047 28.19 98.8047 28.518V35.6103C98.8047 35.8325 98.3252 36.1308 98.2065 36.1308V36.2513H101.097C100.889 36.2035 100.66 36.1256 100.66 36.0461C100.66 35.8737 100.688 35.736 100.657 35.6416C100.586 35.4281 100.309 35.2524 100.121 35.2524C99.7808 35.2524 99.7954 35.6687 99.3934 34.8768C99.2342 34.5633 99.327 34.6467 99.5637 34.4155C99.7819 34.203 99.7521 33.74 99.4249 33.6172C99.1986 33.5318 99.228 33.5085 99.1452 33.4862C99.1452 33.1594 99.265 32.9494 99.3251 32.6931C99.4472 32.6902 99.4125 32.664 99.5264 32.6711C99.599 32.6756 99.6212 32.6931 99.7357 32.6931C99.8786 32.6931 100.083 32.4415 100.139 32.327C100.263 32.0724 100.118 31.9899 100.095 31.7202C100.212 31.6425 100.279 31.5833 100.42 31.5068C100.542 31.4402 100.643 31.3706 100.788 31.3369C100.804 31.3469 100.813 31.3532 100.822 31.3598Z" fill="#085BDA"/>
<path fill-rule="evenodd" clip-rule="evenodd" d="M101.703 33.0706C102.076 33.0706 102.378 33.372 102.378 33.7439C102.378 34.1159 102.076 34.4166 101.703 34.4166C101.33 34.4166 101.028 34.1159 101.028 33.7439C101.028 33.3719 101.33 33.0706 101.703 33.0706ZM101.703 33.4795C101.849 33.4795 101.968 33.5977 101.968 33.7439C101.968 33.8895 101.849 34.0078 101.703 34.0078C101.557 34.0078 101.438 33.8895 101.438 33.7439C101.438 33.5977 101.557 33.4795 101.703 33.4795Z" fill="#085BDA"/>
<path d="M87.5094 33.602H87.0658C87.0021 33.6973 86.9281 33.8158 86.8436 33.9577C86.759 34.0999 86.6986 34.2051 86.6615 34.2736C86.6247 34.3421 86.5743 34.4264 86.5109 34.5263C86.4476 34.6262 86.4 34.6975 86.3682 34.7399C86.3364 34.7821 86.2969 34.8374 86.2491 34.9059C86.2019 34.9742 86.1623 35.0187 86.1305 35.0399L86.0117 35.1187C85.9641 35.1508 85.9193 35.1718 85.877 35.1825C85.8347 35.1927 85.7898 35.2031 85.7425 35.2139C85.6948 35.2241 85.6395 35.2293 85.5762 35.2293H82.581V31.2795H84.3399C84.5198 31.2795 84.6543 31.2927 84.7442 31.3194C84.8339 31.3457 84.9476 31.4432 85.0847 31.6114C85.2223 31.7801 85.354 32.038 85.481 32.3859H85.9246V29.163H85.481C85.354 29.5104 85.2223 29.7685 85.0847 29.9372C84.9476 30.1058 84.8337 30.2032 84.7442 30.2294C84.6543 30.2557 84.5198 30.2687 84.3399 30.2687H82.581V26.4771H85.5601C85.7819 26.4771 85.9667 26.5563 86.1146 26.714C86.2412 26.8512 86.5002 27.3147 86.8912 28.1044H87.3348V25.4822H79.174V25.9243C79.3749 25.9664 79.5414 26.0242 79.6732 26.0978C79.8054 26.1717 79.895 26.2723 79.9427 26.3981C79.9902 26.525 80.0193 26.6301 80.0299 26.714C80.0404 26.7982 80.0458 26.9142 80.0458 27.0619V34.6449C80.0458 34.7923 80.0404 34.9083 80.0299 34.9926C80.0193 35.0766 79.9902 35.1825 79.9427 35.3086C79.895 35.4353 79.8054 35.5352 79.6732 35.6089C79.5414 35.6827 79.3749 35.7404 79.174 35.7826V36.2252H87.3507L87.5094 33.602ZM88.5711 30.8531C88.5711 32.6439 89.0966 34.013 90.1475 34.961C91.1989 35.9086 92.5799 36.3824 94.2913 36.3824C95.3479 36.3824 96.4202 36.2773 97.5081 36.0666L97.6664 33.602H97.2226C96.7051 34.866 95.7278 35.4982 94.2912 35.4982C93.1926 35.4982 92.4003 35.1371 91.9144 34.4159C91.4284 33.6942 91.1855 32.507 91.1855 30.8533C91.1855 29.1998 91.4284 28.0122 91.9144 27.2909C92.4003 26.5693 93.1926 26.2084 94.2912 26.2084C94.9569 26.2084 95.5141 26.3535 95.963 26.6431C96.4121 26.9328 96.779 27.4198 97.0641 28.1044H97.5081V25.6397C96.42 25.4292 95.3477 25.324 94.2913 25.324C92.5801 25.324 91.1989 25.798 90.1475 26.7462C89.0965 27.6936 88.5711 29.0628 88.5711 30.8531Z" fill="#085BDA"/>
<path d="M107.636 36.3018C108.521 36.3018 109.334 35.8541 109.829 35.046L109.919 36.2794L112.43 35.5947V35.4301L111.324 35.0988V29.375L108.878 30.1083L108.88 30.326L109.805 30.7212L109.807 34.5453C109.415 35.0592 108.906 35.3446 108.33 35.3446C107.643 35.3446 107.253 34.9538 107.253 33.9613V29.3752L104.611 30.1085V30.3262L105.738 30.7213V34.2272C105.736 35.5095 106.385 36.3018 107.636 36.3018Z" fill="#085BDA"/>
<path d="M115.44 36.2907C117.023 36.2907 118.465 34.9602 118.465 32.7559C118.465 30.4748 117.439 29.3356 115.955 29.3356C115.195 29.3356 114.433 29.7262 113.997 30.3607V27.3155L114.107 25.9106L111.318 26.5976V26.7603L112.48 27.2233L112.483 36.0535L112.824 36.0515L113.737 35.7683C114.18 36.1435 114.748 36.2907 115.44 36.2907ZM115.036 35.6188C114.579 35.6188 114.257 35.4765 113.997 35.2565V30.9425C114.299 30.5191 114.777 30.2048 115.314 30.2048C116.268 30.2048 116.933 31.0377 116.933 32.8266C116.933 34.5211 116.254 35.6188 115.036 35.6188Z" fill="#085BDA"/>
<path fill-rule="evenodd" clip-rule="evenodd" d="M121.926 32.5129C121.926 31.9789 121.492 31.5461 120.957 31.5461C120.469 31.5461 120.066 31.9043 119.997 32.3709L118.399 32.5129L119.997 32.654C120.066 33.1206 120.469 33.4792 120.957 33.4792C121.492 33.4792 121.926 33.0465 121.926 32.5129Z" fill="#085BDA"/>
<path fill-rule="evenodd" clip-rule="evenodd" d="M114.67 27.2125C114.328 27.3391 114.153 27.7181 114.28 28.0597C114.381 28.3319 114.644 28.4982 114.92 28.4892L115.704 30.1341L115.23 28.4014C115.505 28.2441 115.633 27.9078 115.52 27.6017C115.393 27.2602 115.013 27.0859 114.67 27.2125Z" fill="#085BDA"/>
<path fill-rule="evenodd" clip-rule="evenodd" d="M120.176 26.1465C120.778 26.5982 120.899 27.4506 120.446 28.051C120.034 28.5971 119.289 28.7465 118.705 28.4286L117.194 30.1003L118.385 28.1889C117.917 27.7171 117.854 26.9621 118.266 26.416C118.719 25.8154 119.574 25.6948 120.176 26.1465Z" fill="#085BDA"/>
<path fill-rule="evenodd" clip-rule="evenodd" d="M113.706 38.4343C113.419 38.3284 113.272 38.0099 113.379 37.7237C113.464 37.4954 113.684 37.3562 113.916 37.363L114.573 35.9832L114.176 37.4369C114.406 37.5692 114.514 37.8513 114.418 38.1082C114.312 38.3945 113.993 38.5401 113.706 38.4343Z" fill="#085BDA"/>
<path fill-rule="evenodd" clip-rule="evenodd" d="M119.337 39.0588C119.921 38.6207 120.039 37.7931 119.599 37.2103C119.199 36.6805 118.476 36.5354 117.909 36.8438L116.442 35.2208L117.599 37.0766C117.144 37.5344 117.083 38.267 117.483 38.7972C117.922 39.3799 118.752 39.4969 119.337 39.0588Z" fill="#085BDA"/>
<path d="M0 16.324V0.924H7.524C9.46 0.924 10.912 1.29067 11.88 2.024C12.8627 2.75733 13.354 3.72533 13.354 4.928C13.354 5.73467 13.156 6.43867 12.76 7.04C12.364 7.62667 11.8213 8.08133 11.132 8.404C10.4427 8.72667 9.65067 8.888 8.756 8.888L9.174 7.986C10.142 7.986 11 8.14733 11.748 8.47C12.496 8.778 13.0753 9.24 13.486 9.856C13.9113 10.472 14.124 11.2273 14.124 12.122C14.124 13.442 13.6033 14.476 12.562 15.224C11.5207 15.9573 9.988 16.324 7.964 16.324H0ZM3.542 13.64H7.7C8.624 13.64 9.32067 13.4933 9.79 13.2C10.274 12.892 10.516 12.408 10.516 11.748C10.516 11.1027 10.274 10.626 9.79 10.318C9.32067 9.99533 8.624 9.834 7.7 9.834H3.278V7.238H7.084C7.94933 7.238 8.60933 7.09133 9.064 6.798C9.53333 6.49 9.768 6.028 9.768 5.412C9.768 4.81067 9.53333 4.36333 9.064 4.07C8.60933 3.762 7.94933 3.608 7.084 3.608H3.542V13.64Z" fill="#085BDA"/>
<path d="M16.5803 16.324V0H20.0123V16.324H16.5803Z" fill="#085BDA"/>
<path d="M28.1915 16.5C27.2088 16.5 26.3288 16.3093 25.5515 15.928C24.7888 15.5467 24.1948 14.9673 23.7695 14.19C23.3441 13.398 23.1315 12.3933 23.1315 11.176V4.488H26.5635V10.67C26.5635 11.6527 26.7688 12.3787 27.1795 12.848C27.6048 13.3027 28.1988 13.53 28.9615 13.53C29.4895 13.53 29.9588 13.42 30.3695 13.2C30.7801 12.9653 31.1028 12.6133 31.3375 12.144C31.5721 11.66 31.6895 11.0587 31.6895 10.34V4.488H35.1215V16.324H31.8655V13.068L32.4595 14.014C32.0635 14.8353 31.4768 15.4587 30.6995 15.884C29.9368 16.2947 29.1008 16.5 28.1915 16.5Z" fill="#085BDA"/>
<path d="M44.175 16.5C42.8256 16.5 41.6376 16.236 40.611 15.708C39.599 15.18 38.8143 14.4613 38.257 13.552C37.6996 12.628 37.421 11.5793 37.421 10.406C37.421 9.218 37.6923 8.16933 38.235 7.26C38.7923 6.336 39.5476 5.61733 40.501 5.104C41.4543 4.576 42.5323 4.312 43.735 4.312C44.8936 4.312 45.935 4.56133 46.859 5.06C47.7976 5.544 48.5383 6.248 49.081 7.172C49.6236 8.08133 49.895 9.174 49.895 10.45C49.895 10.582 49.8876 10.736 49.873 10.912C49.8583 11.0733 49.8436 11.2273 49.829 11.374H40.215V9.372H48.025L46.705 9.966C46.705 9.35 46.5803 8.81467 46.331 8.36C46.0816 7.90533 45.737 7.55333 45.297 7.304C44.857 7.04 44.3436 6.908 43.757 6.908C43.1703 6.908 42.6496 7.04 42.195 7.304C41.755 7.55333 41.4103 7.91267 41.161 8.382C40.9116 8.83667 40.787 9.37933 40.787 10.01V10.538C40.787 11.1833 40.9263 11.7553 41.205 12.254C41.4983 12.738 41.9016 13.112 42.415 13.376C42.943 13.6253 43.559 13.75 44.263 13.75C44.8936 13.75 45.4436 13.6547 45.913 13.464C46.397 13.2733 46.837 12.9873 47.233 12.606L49.059 14.586C48.5163 15.202 47.8343 15.6787 47.013 16.016C46.1916 16.3387 45.2456 16.5 44.175 16.5Z" fill="#085BDA"/>
<path d="M66.0223 16.588C64.8343 16.588 63.727 16.3973 62.7003 16.016C61.6883 15.62 60.8083 15.0627 60.0603 14.344C59.3123 13.6253 58.7257 12.782 58.3003 11.814C57.8897 10.846 57.6843 9.78267 57.6843 8.624C57.6843 7.46533 57.8897 6.402 58.3003 5.434C58.7257 4.466 59.3123 3.62267 60.0603 2.904C60.823 2.18533 61.7103 1.63533 62.7223 1.254C63.7343 0.858 64.8417 0.660001 66.0443 0.660001C67.379 0.660001 68.5817 0.894667 69.6523 1.364C70.7377 1.81867 71.647 2.49333 72.3803 3.388L70.0923 5.5C69.5643 4.89867 68.9777 4.45133 68.3323 4.158C67.687 3.85 66.983 3.696 66.2203 3.696C65.5017 3.696 64.8417 3.81333 64.2403 4.048C63.639 4.28267 63.1183 4.62 62.6783 5.06C62.2383 5.5 61.8937 6.02067 61.6443 6.622C61.4097 7.22333 61.2923 7.89067 61.2923 8.624C61.2923 9.35733 61.4097 10.0247 61.6443 10.626C61.8937 11.2273 62.2383 11.748 62.6783 12.188C63.1183 12.628 63.639 12.9653 64.2403 13.2C64.8417 13.4347 65.5017 13.552 66.2203 13.552C66.983 13.552 67.687 13.4053 68.3323 13.112C68.9777 12.804 69.5643 12.342 70.0923 11.726L72.3803 13.838C71.647 14.7327 70.7377 15.4147 69.6523 15.884C68.5817 16.3533 67.3717 16.588 66.0223 16.588Z" fill="#085BDA"/>
<path d="M79.7689 16.5C78.5076 16.5 77.3856 16.236 76.4029 15.708C75.4349 15.18 74.6649 14.4613 74.0929 13.552C73.5356 12.628 73.2569 11.5793 73.2569 10.406C73.2569 9.218 73.5356 8.16933 74.0929 7.26C74.6649 6.336 75.4349 5.61733 76.4029 5.104C77.3856 4.576 78.5076 4.312 79.7689 4.312C81.0156 4.312 82.1302 4.576 83.1129 5.104C84.0956 5.61733 84.8656 6.32867 85.4229 7.238C85.9802 8.14733 86.2589 9.20333 86.2589 10.406C86.2589 11.5793 85.9802 12.628 85.4229 13.552C84.8656 14.4613 84.0956 15.18 83.1129 15.708C82.1302 16.236 81.0156 16.5 79.7689 16.5ZM79.7689 13.684C80.3409 13.684 80.8542 13.552 81.3089 13.288C81.7636 13.024 82.1229 12.65 82.3869 12.166C82.6509 11.6673 82.7829 11.0807 82.7829 10.406C82.7829 9.71667 82.6509 9.13 82.3869 8.646C82.1229 8.162 81.7636 7.788 81.3089 7.524C80.8542 7.26 80.3409 7.128 79.7689 7.128C79.1969 7.128 78.6836 7.26 78.2289 7.524C77.7742 7.788 77.4076 8.162 77.1289 8.646C76.8649 9.13 76.7329 9.71667 76.7329 10.406C76.7329 11.0807 76.8649 11.6673 77.1289 12.166C77.4076 12.65 77.7742 13.024 78.2289 13.288C78.6836 13.552 79.1969 13.684 79.7689 13.684Z" fill="#085BDA"/>
<path d="M88.5529 16.324V0H91.9849V16.324H88.5529Z" fill="#085BDA"/>
<path d="M95.1701 16.324V0H98.6021V16.324H95.1701Z" fill="#085BDA"/>
<path d="M109.047 16.324V14.014L108.827 13.508V9.372C108.827 8.63867 108.6 8.06667 108.145 7.656C107.705 7.24533 107.023 7.04 106.099 7.04C105.469 7.04 104.845 7.14267 104.229 7.348C103.628 7.53867 103.115 7.80267 102.689 8.14L101.457 5.742C102.103 5.28733 102.88 4.93533 103.789 4.686C104.699 4.43667 105.623 4.312 106.561 4.312C108.365 4.312 109.766 4.73733 110.763 5.588C111.761 6.43867 112.259 7.766 112.259 9.57V16.324H109.047ZM105.439 16.5C104.515 16.5 103.723 16.346 103.063 16.038C102.403 15.7153 101.897 15.2827 101.545 14.74C101.193 14.1973 101.017 13.5887 101.017 12.914C101.017 12.21 101.186 11.594 101.523 11.066C101.875 10.538 102.425 10.1273 103.173 9.834C103.921 9.526 104.897 9.372 106.099 9.372H109.245V11.374H106.473C105.667 11.374 105.109 11.506 104.801 11.77C104.508 12.034 104.361 12.364 104.361 12.76C104.361 13.2 104.53 13.552 104.867 13.816C105.219 14.0653 105.696 14.19 106.297 14.19C106.869 14.19 107.383 14.058 107.837 13.794C108.292 13.5153 108.622 13.112 108.827 12.584L109.355 14.168C109.106 14.9307 108.651 15.51 107.991 15.906C107.331 16.302 106.481 16.5 105.439 16.5Z" fill="#085BDA"/>
<path d="M115.365 16.324V4.488H118.643V7.832L118.181 6.864C118.533 6.028 119.098 5.39733 119.875 4.972C120.653 4.532 121.599 4.312 122.713 4.312V7.48C122.567 7.46533 122.435 7.458 122.317 7.458C122.2 7.44333 122.075 7.436 121.943 7.436C121.005 7.436 120.242 7.70733 119.655 8.25C119.083 8.778 118.797 9.60667 118.797 10.736V16.324H115.365Z" fill="#085BDA"/>
<path d="M61.004 33.324V26.324H64.424C65.304 26.324 65.964 26.4907 66.404 26.824C66.8507 27.1573 67.074 27.5973 67.074 28.144C67.074 28.5107 66.984 28.8307 66.804 29.104C66.624 29.3707 66.3773 29.5773 66.064 29.724C65.7507 29.8707 65.3907 29.944 64.984 29.944L65.174 29.534C65.614 29.534 66.004 29.6073 66.344 29.754C66.684 29.894 66.9473 30.104 67.134 30.384C67.3273 30.664 67.424 31.0073 67.424 31.414C67.424 32.014 67.1873 32.484 66.714 32.824C66.2407 33.1573 65.544 33.324 64.624 33.324H61.004ZM62.614 32.104H64.504C64.924 32.104 65.2407 32.0373 65.454 31.904C65.674 31.764 65.784 31.544 65.784 31.244C65.784 30.9507 65.674 30.734 65.454 30.594C65.2407 30.4473 64.924 30.374 64.504 30.374H62.494V29.194H64.224C64.6173 29.194 64.9173 29.1273 65.124 28.994C65.3373 28.854 65.444 28.644 65.444 28.364C65.444 28.0907 65.3373 27.8873 65.124 27.754C64.9173 27.614 64.6173 27.544 64.224 27.544H62.614V32.104Z" fill="black"/>
<path d="M69.2205 35.344C68.9405 35.344 68.6638 35.3007 68.3905 35.214C68.1172 35.1273 67.8938 35.0073 67.7205 34.854L68.2905 33.744C68.4105 33.8507 68.5471 33.934 68.7005 33.994C68.8605 34.054 69.0172 34.084 69.1705 34.084C69.3905 34.084 69.5638 34.0307 69.6905 33.924C69.8238 33.824 69.9438 33.654 70.0505 33.414L70.3305 32.754L70.4505 32.584L72.3805 27.944H73.8805L71.4505 33.654C71.2772 34.0873 71.0772 34.4273 70.8505 34.674C70.6305 34.9207 70.3838 35.094 70.1105 35.194C69.8438 35.294 69.5471 35.344 69.2205 35.344ZM70.1405 33.534L67.7405 27.944H69.3505L71.2105 32.444L70.1405 33.534Z" fill="black"/>
</svg>
