<svg width="32" height="40" viewBox="0 0 32 40" fill="none" xmlns="http://www.w3.org/2000/svg">
<path fill-rule="evenodd" clip-rule="evenodd" d="M5.21923 0.121338C2.33673 0.121338 0 2.42472 0 5.26607V30.1012C0 32.9426 2.33673 35.2459 5.21923 35.2459H21.1095L32 39.8789V5.26607C32 2.42471 29.6633 0.121338 26.7808 0.121338H5.21923ZM26.7222 27.4478L26.9684 27.9015C27.2226 27.7674 27.3184 27.4557 27.1824 27.2051C27.0465 26.9547 26.7304 26.8602 26.4762 26.9941L26.476 26.9942L26.4754 26.9945L26.4708 26.9969C26.4664 26.9992 26.4594 27.0028 26.4497 27.0078C26.4304 27.0176 26.4007 27.0327 26.3609 27.0524C26.2813 27.0917 26.1614 27.1496 26.0043 27.2218C25.6899 27.3662 25.2265 27.5676 24.6375 27.7919C23.4585 28.2408 21.7804 28.7799 19.788 29.1391C15.8001 29.8581 10.5908 29.8509 5.59464 27.0025C5.34512 26.8602 5.02585 26.9443 4.88154 27.1902C4.73722 27.4362 4.8225 27.7509 5.07202 27.8932C10.3537 30.9044 15.8388 30.8971 19.9759 30.1512C22.046 29.778 23.788 29.2184 25.0136 28.7517C25.6268 28.5183 26.1118 28.3076 26.4452 28.1545C26.6119 28.0779 26.7408 28.0156 26.829 27.972C26.8731 27.9502 26.907 27.9331 26.9303 27.9212C26.942 27.9152 26.9511 27.9105 26.9574 27.9072L26.965 27.9033L26.9679 27.9017C26.9682 27.9016 26.9684 27.9015 26.7222 27.4478Z" fill="white"/>
</svg>
