<svg xmlns="http://www.w3.org/2000/svg" width="162.705" height="42.459" viewBox="0 0 162.705 42.459"><defs><style>.a{fill:#a30937;}</style></defs><g transform="translate(-120.878 -127.209)"><g transform="translate(0 -2)"><g transform="translate(72.496 73.748)"><path class="a" d="M133.025,86.322a7.431,7.431,0,0,1-6.06-2.88v9.982H123.63V67.78h3.185V71.12a6.815,6.815,0,0,1,6.336-3.64c4.983,0,8.64,4.032,8.64,9.343S138.244,86.322,133.025,86.322Zm-.19-15.869A5.846,5.846,0,0,0,127,76.639V77c0,3.681,2.546,6.3,5.76,6.3s5.541-2.88,5.541-6.526S136.17,70.452,132.835,70.452Z" transform="translate(-25.843 -0.021)"/><path class="a" d="M176.047,80.2c-.824,3.831-3.854,6.158-8.231,6.158-5.127,0-8.905-3.98-8.905-9.418,0-5.553,3.629-9.493,8.721-9.493s8.456,3.6,8.456,8.894a7.528,7.528,0,0,1-.115,1.388H162.314a5.57,5.57,0,0,0,5.5,5.76c2.621,0,4.418-1.2,4.827-3.266Zm-8.381-9.867a5.086,5.086,0,0,0-5.259,5.069h10.288A4.837,4.837,0,0,0,167.666,70.336Z" transform="translate(-40.801 -0.008)"/><path class="a" d="M195.874,85.945H192.51V67.777h3.22v2.817a7.022,7.022,0,0,1,6.06-3.116c4.337,0,7.1,3,7.1,8.18V85.945h-3.352V75.778c0-3.6-1.688-5.328-4.453-5.328-3.22,0-5.184,2.212-5.184,5.852Z" transform="translate(-55.046 -0.019)"/><path class="a" d="M228.07,85.945H224.7V67.777h3.22v2.817a7.022,7.022,0,0,1,6.06-3.116c4.343,0,7.1,3,7.1,8.18V85.945h-3.352V75.778c0-3.6-1.688-5.328-4.453-5.328-3.22,0-5.184,2.212-5.184,5.852Z" transform="translate(-68.694 -0.019)"/><path class="a" d="M274.047,80.2c-.824,3.831-3.854,6.152-8.231,6.152-5.127,0-8.905-3.975-8.905-9.418,0-5.553,3.629-9.493,8.721-9.493s8.456,3.6,8.456,8.894a7.968,7.968,0,0,1-.115,1.388H260.3a5.57,5.57,0,0,0,5.5,5.76c2.621,0,4.418-1.2,4.827-3.266Zm-8.381-9.867a5.109,5.109,0,0,0-5.248,5.063h10.288A4.845,4.845,0,0,0,265.666,70.332Z" transform="translate(-82.351 -0.004)"/><path class="a" d="M307.647,80.183c-.824,3.831-3.854,6.158-8.231,6.158-5.127,0-8.905-3.98-8.905-9.418,0-5.553,3.629-9.493,8.721-9.493s8.45,3.6,8.45,8.894a7.528,7.528,0,0,1-.109,1.388H293.9a5.57,5.57,0,0,0,5.5,5.76c2.621,0,4.418-1.2,4.827-3.266Zm-8.381-9.867a5.109,5.109,0,0,0-5.276,5.069h10.288A4.814,4.814,0,0,0,299.266,70.316Z" transform="translate(-96.596 0)"/><g transform="translate(0 -2.747)"><path class="a" d="M94.24,67.43c-8.832,0-15.99,7.92-15.99,17.683s7.158,17.655,15.99,17.655,15.99-7.92,15.99-17.693S103.073,67.43,94.24,67.43Zm0,24.757a7.083,7.083,0,1,1,5.023-2.061A7.073,7.073,0,0,1,94.24,92.187Z" transform="translate(-26.313 -9.222)"/><path class="a" d="M85.136,101.29H74.47V111.9H85.136Z" transform="translate(-26.089 -11.233)"/></g></g></g></g></svg>