<svg width="14" height="14" viewBox="0 0 14 14" fill="none" xmlns="http://www.w3.org/2000/svg">
<path d="M6.47918 13.4884V12.3961H11.8134C11.8741 12.3961 11.9258 12.375 11.9685 12.3327C12.0108 12.29 12.0319 12.2383 12.0319 12.1776V6.91619C12.0319 6.21223 11.8984 5.55076 11.6314 4.93177C11.3644 4.31278 11.0002 3.77268 10.539 3.31147C10.0778 2.85026 9.53773 2.48615 8.91873 2.21913C8.29974 1.95211 7.63827 1.81861 6.93432 1.81861C6.23037 1.81861 5.56889 1.95211 4.9499 2.21913C4.33091 2.48615 3.79081 2.85026 3.3296 3.31147C2.86839 3.77268 2.50428 4.31278 2.23726 4.93177C1.97025 5.55076 1.83674 6.21223 1.83674 6.91619V11.3402H1.29057C0.938594 11.3402 0.638322 11.2159 0.389754 10.9673C0.140701 10.7183 0.0161743 10.4177 0.0161743 10.0658V8.60931C0.0161743 8.36657 0.0829284 8.14494 0.216436 7.94444C0.349945 7.74442 0.525932 7.57766 0.7444 7.44415L0.780811 6.49746C0.841497 5.66 1.05098 4.88929 1.40927 4.18534C1.76707 3.48139 2.22513 2.87745 2.78343 2.37351C3.34174 1.87007 3.97578 1.47877 4.68556 1.19961C5.39582 0.92046 6.14541 0.780884 6.93432 0.780884C7.72323 0.780884 8.47573 0.92046 9.19182 1.19961C9.90791 1.47877 10.5419 1.87007 11.0939 2.37351C11.6464 2.87745 12.1018 3.47823 12.4601 4.17587C12.8179 4.874 13.0271 5.64179 13.0878 6.47925L13.1242 7.42594C13.3427 7.53518 13.5187 7.68373 13.6522 7.87162C13.7857 8.05998 13.8525 8.26947 13.8525 8.50008V10.175C13.8525 10.3935 13.7857 10.5969 13.6522 10.7852C13.5187 10.9731 13.3427 11.1217 13.1242 11.2309V12.1776C13.1242 12.5417 12.9968 12.8512 12.7419 13.1061C12.487 13.361 12.1775 13.4884 11.8134 13.4884H6.47918ZM4.89529 8.44546C4.71323 8.44546 4.55836 8.38162 4.43068 8.25394C4.30348 8.12674 4.23988 7.97818 4.23988 7.80826C4.23988 7.6262 4.30348 7.47134 4.43068 7.34365C4.55836 7.21646 4.71323 7.15286 4.89529 7.15286C5.06521 7.15286 5.21376 7.21646 5.34096 7.34365C5.46864 7.47134 5.53248 7.6262 5.53248 7.80826C5.53248 7.97818 5.46864 8.12674 5.34096 8.25394C5.21376 8.38162 5.06521 8.44546 4.89529 8.44546ZM8.97335 8.44546C8.80343 8.44546 8.65487 8.38162 8.52768 8.25394C8.39999 8.12674 8.33615 7.97818 8.33615 7.80826C8.33615 7.6262 8.39999 7.47134 8.52768 7.34365C8.65487 7.21646 8.80343 7.15286 8.97335 7.15286C9.15541 7.15286 9.31028 7.21646 9.43796 7.34365C9.56516 7.47134 9.62875 7.6262 9.62875 7.80826C9.62875 7.97818 9.56516 8.12674 9.43796 8.25394C9.31028 8.38162 9.15541 8.44546 8.97335 8.44546ZM2.83805 7.26209C2.7895 6.59455 2.88368 5.98478 3.1206 5.43279C3.35703 4.88031 3.67235 4.41279 4.06657 4.03023C4.46126 3.64815 4.91349 3.35395 5.42325 3.14762C5.93301 2.94129 6.44883 2.83812 6.97073 2.83812C8.01452 2.83812 8.91558 3.16582 9.6739 3.82123C10.4327 4.47663 10.891 5.29588 11.0488 6.27899C9.98073 6.26685 9.00976 5.97847 8.13589 5.41386C7.26202 4.84972 6.60662 4.11859 6.16968 3.22044C5.97549 4.14286 5.58419 4.96211 4.99578 5.6782C4.40689 6.39429 3.68765 6.92225 2.83805 7.26209Z" fill="#7029CB"/>
</svg>
