<svg width="14" height="14" viewBox="0 0 14 14" fill="none" xmlns="http://www.w3.org/2000/svg">
<path d="M5.16574 8.83422V5.16574H8.83422V8.83422H5.16574ZM6.26629 7.73368H7.73368V6.26629H6.26629V7.73368ZM4.98232 13.0713V11.769H3.55161C3.18476 11.769 2.87294 11.6406 2.61615 11.3838C2.35936 11.127 2.23096 10.8152 2.23096 10.4484V9.01764H0.92865V7.9171H2.23096V6.08286H0.92865V4.98232H2.23096V3.55161C2.23096 3.18476 2.35936 2.87294 2.61615 2.61615C2.87294 2.35936 3.18476 2.23096 3.55161 2.23096H4.98232V0.92865H6.08286V2.23096H7.9171V0.92865H9.01764V2.23096H10.4484C10.8152 2.23096 11.127 2.35936 11.3838 2.61615C11.6406 2.87294 11.769 3.18476 11.769 3.55161V4.98232H13.0713V6.08286H11.769V7.9171H13.0713V9.01764H11.769V10.4484C11.769 10.8152 11.6406 11.127 11.3838 11.3838C11.127 11.6406 10.8152 11.769 10.4484 11.769H9.01764V13.0713H7.9171V11.769H6.08286V13.0713H4.98232ZM10.4484 10.6685C10.4973 10.6685 10.5462 10.644 10.5951 10.5951C10.644 10.5462 10.6685 10.4973 10.6685 10.4484V3.55161C10.6685 3.5027 10.644 3.45379 10.5951 3.40487C10.5462 3.35596 10.4973 3.3315 10.4484 3.3315H3.55161C3.5027 3.3315 3.45379 3.35596 3.40487 3.40487C3.35596 3.45379 3.3315 3.5027 3.3315 3.55161V10.4484C3.3315 10.4973 3.35596 10.5462 3.40487 10.5951C3.45379 10.644 3.5027 10.6685 3.55161 10.6685H10.4484Z" fill="#3E1BA2"/>
</svg>
