<?xml version="1.0" encoding="UTF-8"?>
<!DOCTYPE svg PUBLIC "-//W3C//DTD SVG 1.1//EN" "http://www.w3.org/Graphics/SVG/1.1/DTD/svg11.dtd">
<!-- Creator: CorelDRAW 2017 -->
<svg xmlns="http://www.w3.org/2000/svg" xml:space="preserve" width="11in" height="6.5in" version="1.1" style="shape-rendering:geometricPrecision; text-rendering:geometricPrecision; image-rendering:optimizeQuality; fill-rule:evenodd; clip-rule:evenodd"
viewBox="0 0 11000 6500"
 xmlns:xlink="http://www.w3.org/1999/xlink">
 <defs>
  <style type="text/css">
   <![CDATA[
    .fil0 {fill:#00AFEF}
    .fil1 {fill:#373435;fill-rule:nonzero}
   ]]>
  </style>
 </defs>
 <g id="Layer_x0020_1">
  <metadata id="CorelCorpID_0Corel-Layer"/>
  <g id="_2560808990720">
   <path class="fil0" d="M3923 2848c0,27 20,44 38,57l303 265c21,14 36,32 49,51 -26,39 -70,75 -105,108 -19,18 -34,34 -53,53l-165 161c-20,20 -33,34 -53,53l-24 24c-33,34 -18,49 20,59 28,8 112,4 140,-18 33,-27 89,-85 118,-118 13,-15 15,-11 29,-24 17,-16 39,-50 89,-89 34,-27 85,-104 123,-114 19,83 -30,77 101,77 16,0 16,-3 30,-6 0,-15 -1,-25 -2,-40l2 -96 172 -6c0,-49 5,-35 -172,-35l-1 -43c1,-13 1,-26 2,-39 0,-36 -4,-51 -6,-77 -20,0 -98,-5 -110,3 -14,9 -12,81 -15,92 -41,-10 -41,-39 -96,-81l-98 -86c-17,-15 -27,-28 -45,-44 -17,-16 -30,-26 -47,-42 -77,-77 -64,-73 -182,-73 -20,0 -41,10 -41,30z"/>
   <path class="fil0" d="M3994 3215c-68,0 -211,-17 -164,33 25,27 164,-18 164,26l0 201 30 0 0 -450c0,-23 2,-2 -6,-18 -23,6 -22,2 -24,29 -1,15 1,43 1,60 0,39 0,79 0,118z"/>
   <path class="fil1" d="M4978 3214l40 0c50,0 85,-7 106,-20 21,-14 31,-36 31,-68 0,-35 -9,-59 -29,-73 -19,-14 -55,-21 -108,-21l-40 0 0 182zm0 281l36 0c37,0 64,-2 83,-4 18,-3 33,-8 43,-15 13,-8 23,-20 30,-34 7,-14 11,-30 11,-47 0,-20 -4,-38 -13,-53 -9,-15 -21,-27 -37,-35 -10,-5 -21,-9 -34,-11 -13,-2 -30,-3 -51,-3l-32 0 -36 0 0 203zm-103 86l0 -636 163 0c47,0 81,2 103,7 22,5 41,13 57,24 20,15 35,34 47,57 11,24 17,49 17,78 0,34 -8,62 -24,85 -16,23 -39,39 -69,48 38,6 67,23 89,51 22,28 32,63 32,106 0,26 -5,50 -14,73 -9,23 -22,43 -39,59 -18,18 -40,30 -66,37 -26,7 -70,11 -132,11l-164 0zm625 -370l27 0c58,0 97,-6 117,-19 19,-12 29,-34 29,-66 0,-34 -10,-58 -31,-72 -21,-14 -59,-21 -114,-21l-27 0 0 177zm-6 85l0 286 -98 0 0 -636 159 0c47,0 82,2 104,8 22,5 42,14 58,25 20,15 36,35 48,60 11,25 17,53 17,83 0,30 -6,58 -17,83 -12,26 -27,46 -48,60 -17,12 -36,20 -58,25 -22,5 -57,7 -104,7l-21 0 -40 0zm909 -28c-1,-5 -3,-19 -6,-41 -2,-19 -5,-34 -6,-46 -3,15 -6,29 -11,43 -5,15 -11,29 -18,44l-169 339 -169 -346c-7,-14 -13,-28 -18,-41 -5,-13 -10,-27 -13,-40 0,13 -1,27 -3,42 -2,15 -5,30 -9,46l-69 313 -97 0 153 -663 191 402c3,6 7,17 13,32 6,15 13,33 22,55 6,-18 16,-41 29,-69 3,-8 6,-13 8,-17l186 -401 156 663 -98 0 -71 -314zm771 -167c-30,-25 -61,-44 -94,-56 -33,-12 -68,-19 -104,-19 -70,0 -128,22 -172,67 -44,45 -66,102 -66,173 0,69 22,125 65,170 43,45 97,67 163,67 38,0 75,-7 109,-20 34,-13 68,-33 99,-60l0 117c-28,20 -59,35 -92,45 -33,10 -69,15 -108,15 -49,0 -95,-8 -137,-24 -42,-16 -79,-40 -111,-70 -31,-30 -56,-66 -73,-108 -17,-41 -25,-85 -25,-132 0,-47 8,-91 25,-131 17,-41 41,-77 73,-108 32,-31 69,-55 110,-71 41,-16 86,-24 134,-24 38,0 74,5 108,16 34,11 68,27 100,50l-6 104z"/>
  </g>
 </g>
</svg>
